Coordinates
version=1
nRows=26
nColumns=24
inDegrees=yes

Units are S.I. units (second, meters, Newtons, ...)
Angles are in degrees.

endheader
time	pelvis_tilt	pelvis_list	pelvis_rotation	pelvis_tx	pelvis_ty	pelvis_tz	hip_flexion_r	hip_adduction_r	hip_rotation_r	knee_angle_r	ankle_angle_r	subtalar_angle_r	mtp_angle_r	hip_flexion_l	hip_adduction_l	hip_rotation_l	knee_angle_l	ankle_angle_l	subtalar_angle_l	mtp_angle_l	lumbar_extension	lumbar_bending	lumbar_rotation
      0.50400000	      0.40169702	      2.13440961	      2.61679658	     -0.86280747	      0.98859988	      0.29700486	     23.22887264	     -0.66864086	     -4.31400171	     -3.31503867	      5.65718825	    -10.12238083	      0.08432170	    -15.84166351	      5.24906294	      4.47067494	     -7.26199596	      9.29862758	     -3.88188551	      0.52272657	     -0.84420957	     -0.03661522	     -1.11588686
      0.50816667	      0.28604712	      2.14911176	      2.69430983	     -0.85714267	      0.98804354	      0.29737757	     23.33685194	     -0.64973988	     -4.40669472	     -3.50729099	      5.58958199	    -10.37697694	      0.12696441	    -15.64873001	      5.21451554	      4.24625699	     -8.00252340	      9.33691289	     -3.52807856	      0.75667061	     -0.68033500	     -0.05929299	     -1.17957135
      0.51233333	      0.24795696	      2.10088314	      2.78840383	     -0.85133407	      0.98757193	      0.29770587	     23.33052623	     -0.57476274	     -4.55334656	     -3.70690015	      5.46614187	    -10.62574968	      0.17519258	    -15.69868202	      5.09984103	      4.15701745	     -8.49187555	      9.31735175	     -3.29956749	      0.99764483	     -0.58170971	     -0.00275005	     -1.26801295
      0.51650000	      0.17205701	      2.06651292	      2.85766436	     -0.84552258	      0.98706964	      0.29807355	     23.39691964	     -0.50838642	     -4.65958852	     -4.02049179	      5.33570295	    -10.89988586	      0.22623079	    -15.70412381	      5.00991817	      4.06906736	     -8.97963233	      9.22035177	     -3.14520604	      1.22583470	     -0.44785151	      0.03877849	     -1.33017017
      0.52066667	      0.14701009	      1.99688382	      2.92564726	     -0.83963272	      0.98666825	      0.29845630	     23.38319945	     -0.40116773	     -4.74273549	     -4.33518579	      5.12626491	    -11.25089326	      0.29643789	    -15.74511471	      4.87443316	      3.92077376	     -9.50902400	      9.14445185	     -2.90828979	      1.52304178	     -0.36078576	      0.12482182	     -1.42503452
      0.52483333	      0.14949237	      1.94813859	      2.96344983	     -0.83371893	      0.98633638	      0.29884505	     23.37750971	     -0.31508279	     -4.86298274	     -4.76789283	      4.95913066	    -11.41700540	      0.30256721	    -15.84226246	      4.77988365	      3.87190094	     -9.97755422	      8.92174917	     -2.93064996	      1.56358186	     -0.32259478	      0.18575964	     -1.42976436
      0.52900000	      0.01383741	      1.89370012	      3.04001764	     -0.82780888	      0.98585900	      0.29924076	     23.47964986	     -0.22669800	     -4.83950154	     -5.15701668	      4.65015972	    -11.95634192	      0.37906103	    -15.69040158	      4.66424585	      3.71899467	    -10.64312487	      8.84048396	     -2.66611288	      1.88937629	     -0.09264633	      0.24646850	     -1.55792225
      0.53316667	     -0.04366440	      1.81170723	      3.05938672	     -0.82181576	      0.98550347	      0.29970213	     23.49713512	     -0.08504083	     -4.77548684	     -5.57485355	      4.31887839	    -12.58958573	      0.51068266	    -15.64764212	      4.52912177	      3.51763474	    -11.25652241	      8.68864060	     -2.44897688	      2.45218093	      0.04899974	      0.36026964	     -1.61745866
      0.53733333	     -0.07803214	      1.72971854	      3.12297763	     -0.81576544	      0.98524228	      0.30005671	     23.49662480	      0.02126430	     -4.89539151	     -6.04166057	      3.97067183	    -12.83949401	      0.54468079	    -15.64888982	      4.39486429	      3.49656956	    -11.82625161	      8.37450459	     -2.43284113	      2.62725009	      0.16032039	      0.47109137	     -1.62190770
      0.54150000	     -0.14642041	      1.66053375	      3.14434225	     -0.80972707	      0.98496033	      0.30051591	     23.49921325	      0.15069721	     -4.76094056	     -6.45588547	      3.56505914	    -13.57461564	      1.57096057	    -15.55262415	      4.27800831	      3.32532650	    -12.49616876	      8.00282079	     -2.44220691	      7.36738209	      0.31219884	      0.54738136	     -1.60987767
      0.54566667	     -0.22628740	      1.56474139	      3.18462055	     -0.80364050	      0.98469554	      0.30091317	     23.53259891	      0.28032946	     -4.80079332	     -6.92769033	      3.15879116	    -13.85909464	      1.58108865	    -15.41635745	      4.13204719	      3.17585266	    -13.23281364	      7.73133824	     -2.33941366	      7.41806537	      0.49374682	      0.67808095	     -1.70471738
      0.54983333	     -0.28999631	      1.45681894	      3.18559334	     -0.79753115	      0.98447820	      0.30138540	     23.53605518	      0.45073169	     -4.69850403	     -7.39254889	      2.75345668	    -14.48519449	      1.60716118	    -15.28377624	      3.97892414	      2.97662753	    -13.98557220	      7.41483359	     -2.23035617	      7.60646652	      0.64982136	      0.82034971	     -1.74557193
      0.55400000	     -0.34210637	      1.34787646	      3.19998704	     -0.79135603	      0.98433790	      0.30178408	     23.53208987	      0.59660050	     -4.74381616	     -7.88059297	      2.29688418	    -14.73040030	      1.60895778	    -15.17499552	      3.83284275	      2.87620708	    -14.70487125	      6.95466136	     -2.26509055	      7.68958394	      0.79567008	      0.97211059	     -1.74001517
      0.55816667	     -0.41634715	      1.22307096	      3.20018746	     -0.78521879	      0.98420184	      0.30228317	     23.49850099	      0.79517779	     -4.54019784	     -8.27216610	      1.86720237	    -15.55173067	      1.63862669	    -14.96150779	      3.65804596	      2.64750821	    -15.57173734	      6.54925683	     -2.17423283	      8.17134512	      0.97345816	      1.12628402	     -1.75812151
      0.56233333	     -0.50070394	      1.09536429	      3.19503795	     -0.77904087	      0.98409796	      0.30274865	     23.49207087	      0.98153698	     -4.43233208	     -8.70563733	      1.41778407	    -16.10023120	      1.66625986	    -14.73071197	      3.48836189	      2.45266393	    -16.43484251	      6.03719336	     -2.17007990	      8.97191097	      1.16675589	      1.29342756	     -1.74925991
      0.56650000	     -0.48430430	      0.93929512	      3.19017061	     -0.77282312	      0.98417989	      0.30319539	     23.35015163	      1.19691238	     -4.37417811	     -9.08364198	      0.84028890	    -16.60827627	      1.71096657	    -14.60100645	      3.28316645	      2.26728878	    -17.29946945	      5.46872523	     -2.24110970	     12.17101220	      1.22904105	      1.50299171	     -1.71344966
      0.57066667	     -0.58220258	      0.83250320	      3.16014398	     -0.76663555	      0.98412051	      0.30363404	     23.39481932	      1.34214583	     -4.37846758	     -9.60505135	      0.50791382	    -16.65742952	      1.70372320	    -14.30882840	      3.15248923	      2.09759231	    -18.23520065	      4.82144527	     -2.36457872	     12.26426852	      1.43777068	      1.65133405	     -1.71245938
      0.57483333	     -0.64509267	      0.69682884	      3.14425333	     -0.76044095	      0.98415733	      0.30407103	     23.36975757	      1.52006188	     -4.35635398	    -10.06793388	      0.12430849	    -16.90592649	      1.68806290	    -14.01507771	      2.98019901	      1.91898200	    -19.22974531	      4.17079491	     -2.45098327	     12.45041924	      1.61095760	      1.83230026	     -1.69235062
      0.57900000	     -0.68694610	      0.52661137	      3.12117184	     -0.75424892	      0.98426876	      0.30456285	     23.29703284	      1.75462361	     -4.23226723	    -10.49507532	     -0.17737464	    -17.52563749	      1.62566091	    -13.70461180	      2.75837736	      1.68879821	    -20.28148304	      3.46666879	     -2.47756957	     13.21403998	      1.74747822	      2.05966100	     -1.66328552
      0.58316667	     -0.67244566	      0.36759434	      3.07899173	     -0.74802989	      0.98448360	      0.30500406	     23.18931599	      1.95392687	     -4.27489436	    -10.96764297	     -0.51273933	    -17.51127579	      1.61021931	    -13.44861322	      2.56079454	      1.48276348	    -21.32744779	      2.66558127	     -2.62447630	     13.33124393	      1.81218409	      2.28991308	     -1.64105613
      0.58733333	     -0.72211493	      0.19339047	      3.05644033	     -0.74185966	      0.98464819	      0.30548020	     23.12362391	      2.17458904	     -4.23370823	    -11.39263315	     -0.78521124	    -17.77354111	      1.05831964	    -13.04799895	      2.32771588	      1.23364166	    -22.49305676	      1.81564379	     -2.79980299	     18.40076598	      1.96586361	      2.51779771	     -1.58532828
      0.59150000	     -0.70020033	      0.03563088	      3.02303809	     -0.73568997	      0.98494835	      0.30592850	     22.99995926	      2.36960968	     -4.25495907	    -11.86623076	     -0.97880648	    -17.80491373	      1.04828095	    -12.72388822	      2.11927448	      1.03130957	    -23.64340258	      0.90114486	     -2.92222844	     18.41983667	      2.01449892	      2.73508420	     -1.56531665
      0.59566667	     -0.74151339	     -0.12483037	      2.99757115	     -0.72957365	      0.98518949	      0.30639834	     22.92653104	      2.56875705	     -4.23173664	    -12.30005404	     -1.15595005	    -17.90210924	      1.02334163	    -12.26301236	      1.90006984	      0.80831285	    -24.90460930	     -0.01705108	     -3.06603808	     18.51542540	      2.15497361	      2.93977279	     -1.52228132
      0.59983333	     -0.67933132	     -0.30237673	      2.96649214	     -0.72345351	      0.98558558	      0.30685792	     22.75378527	      2.78040669	     -4.29487197	    -12.76966519	     -1.25419115	    -17.93989335	      1.00982776	    -11.89933746	      1.65245352	      0.56969796	    -26.17307275	     -0.99116446	     -3.20926429	     18.56453040	      2.15413390	      3.19444125	     -1.48922665
      0.60400000	     -0.71407580	     -0.49512940	      2.93828702	     -0.71740317	      0.98587305	      0.30736571	     22.65821785	      3.01914760	     -4.24326764	    -13.17492631	     -1.34330872	    -17.99423550	      0.96977142	    -11.37050900	      1.38502034	      0.34127052	    -27.53596642	     -1.99571953	     -3.35635892	     18.74301990	      2.27189165	      3.42795064	     -1.43333696
      0.60816667	     -0.67781999	     -0.70141627	      2.90280162	     -0.71139567	      0.98627956	      0.30790742	     22.48508304	      3.28636044	     -4.17299769	    -13.58848812	     -1.34279512	    -18.29612339	      0.14721775	    -10.88690118	      1.08654312	      0.07582049	    -28.91734265	     -3.09871589	     -3.56310998	     22.35310957	      2.28337659	      3.69653612	     -1.37405695
